<?xml version="1.0" encoding="UTF-8" standalone="no"?>
<!-- Created with Inkscape (http://www.inkscape.org/) -->

<svg
   version="1.1"
   id="svg3433"
   width="800"
   height="800"
   viewBox="0 0 800 800"
   sodipodi:docname="blue-tile-pdv.svg"
   inkscape:version="1.2 (dc2aedaf03, 2022-05-15)"
   xmlns:inkscape="http://www.inkscape.org/namespaces/inkscape"
   xmlns:sodipodi="http://sodipodi.sourceforge.net/DTD/sodipodi-0.dtd"
   xmlns="http://www.w3.org/2000/svg"
   xmlns:svg="http://www.w3.org/2000/svg">
  <defs
     id="defs3437">
    <clipPath
       clipPathUnits="userSpaceOnUse"
       id="clipPath3449">
      <path
         d="M 0,600 H 600 V 0 H 0 Z"
         id="path3447" />
    </clipPath>
  </defs>
  <sodipodi:namedview
     id="namedview3435"
     pagecolor="#ffffff"
     bordercolor="#000000"
     borderopacity="0.25"
     inkscape:showpageshadow="2"
     inkscape:pageopacity="0.0"
     inkscape:pagecheckerboard="0"
     inkscape:deskcolor="#d1d1d1"
     showgrid="false"
     inkscape:zoom="1.04625"
     inkscape:cx="400"
     inkscape:cy="400.4779"
     inkscape:window-width="1920"
     inkscape:window-height="1017"
     inkscape:window-x="-8"
     inkscape:window-y="-8"
     inkscape:window-maximized="1"
     inkscape:current-layer="g3441">
    <inkscape:page
       x="0"
       y="0"
       id="page3439"
       width="800"
       height="800" />
  </sodipodi:namedview>
  <g
     id="g3441"
     inkscape:groupmode="layer"
     inkscape:label="Page 1"
     transform="matrix(1.3333333,0,0,-1.3333333,0,800)">
    <g
       id="g3443">
      <g
         id="g3445"
         clip-path="url(#clipPath3449)">
        <g
           id="g3451"
           transform="translate(500.6152,350.2461)">
          <path
             d="m 0,0 93.393,-157.272 c -16.482,16.481 -48.355,11.493 -64.836,-4.989 l -4.081,-4.081 c -16.482,-16.481 -43.367,-16.481 -59.848,0 l -4.085,4.081 c -16.48,16.482 -43.366,16.482 -59.851,0 l -4.078,-4.081 c -16.484,-16.481 -43.369,-16.481 -59.85,0 l -4.081,4.081 c -16.482,16.482 -43.367,16.482 -59.848,0 l -4.081,-4.081 c -16.484,-16.481 -43.366,-16.481 -59.851,0 l -4.082,4.081 c -16.483,16.482 -43.369,16.482 -59.85,0 l -4.081,-4.081 c -16.482,-16.481 -43.366,-16.481 -59.848,0 l -4.081,4.081 c -16.481,16.482 -48.354,21.47 -64.836,4.986 L -394.482,0 c 11.382,11.38 29.943,11.38 41.326,0 l 2.817,-2.817 c 11.383,-11.383 29.947,-11.38 41.326,0 L -306.194,0 c 11.382,11.38 29.946,11.38 41.325,0 l 2.818,-2.817 c 11.383,-11.383 29.947,-11.38 41.329,0 L -217.907,0 c 11.383,11.38 29.946,11.38 41.329,0 l 2.818,-2.817 c 11.379,-11.383 29.947,-11.38 41.326,0 L -129.616,0 c 11.379,11.38 29.946,11.38 41.329,0 l 2.814,-2.817 c 11.383,-11.383 29.947,-11.38 41.33,0 L -41.326,0 C -29.943,11.38 -11.383,11.383 0,0"
             style="fill:#336699;fill-opacity:1;fill-rule:evenodd;stroke:none"
             id="path3453" />
        </g>
        <g
           id="g3455"
           transform="translate(508.7324,336.5771)">
          <path
             d="m 0,0 9.806,-16.514 c -1.876,-0.709 -4.076,-0.307 -5.588,1.203 -5.124,5.123 -11.872,7.689 -18.619,7.689 -20.841,0 -21.793,-21.512 -47.74,-21.512 -25.946,0 -26.904,21.512 -47.739,21.512 -20.838,0 -21.793,-21.512 -47.739,-21.512 -25.946,0 -26.904,21.512 -47.739,21.512 -20.838,0 -21.793,-21.512 -47.74,-21.512 -25.946,0 -26.901,21.512 -47.739,21.512 -20.838,0 -21.793,-21.512 -47.739,-21.512 -25.946,0 -26.901,21.512 -47.739,21.512 -6.751,0 -13.495,-2.566 -18.622,-7.689 -1.51,-1.51 -3.709,-1.912 -5.588,-1.206 L -410.717,0 c 4.59,1.941 9.497,2.909 14.402,2.909 25.946,0 26.898,-21.511 47.739,-21.511 20.838,0 21.793,21.511 47.739,21.511 25.946,0 26.899,-21.511 47.739,-21.511 20.838,0 21.793,21.511 47.74,21.511 25.946,0 26.898,-21.511 47.739,-21.511 20.835,0 21.793,21.511 47.739,21.511 25.946,0 26.899,-21.511 47.739,-21.511 20.835,0 21.793,21.511 47.74,21.511 C -9.497,2.909 -4.593,1.941 0,0"
             style="fill:#225282;fill-opacity:1;fill-rule:evenodd;stroke:none"
             id="path3457" />
        </g>
        <g
           id="g3459"
           transform="translate(210.8857,182.8936)">
          <path
             d="m 0,0 25.508,166.592 -0.758,0.76 c -11.382,11.38 -29.946,11.38 -41.325,0 l -0.758,-0.76 L -70.113,0 c 0.353,0.33 0.706,0.667 1.05,1.011 l 4.081,4.081 c 16.481,16.481 43.367,16.481 59.847,0 L -1.054,1.011 C -0.707,0.664 -0.354,0.33 0,0 m 127.543,0 c -0.354,0.33 -0.706,0.664 -1.05,1.011 l -4.081,4.081 c -16.481,16.481 -43.366,16.481 -59.848,0 L 58.483,1.011 C 58.137,0.667 57.783,0.33 57.431,0 l 13.633,166.592 0.758,0.76 c 11.383,11.38 29.947,11.38 41.329,0 l 0.758,-0.76 z m 57.356,0 -25.508,166.592 0.757,0.76 c 11.383,11.38 29.951,11.38 41.327,0 l 0.76,-0.76 L 255.012,0 c -0.35,0.33 -0.706,0.667 -1.05,1.011 l -4.081,4.081 c -16.482,16.481 -43.366,16.481 -59.848,0 L 185.952,1.011 C 185.605,0.664 185.253,0.33 184.899,0 m 128.477,3.481 c 0.356,0.332 0.706,0.664 1.049,1.011 l 4.082,4.082 c 16.48,16.485 43.372,16.481 59.85,0 l 4.081,-4.082 c 0.344,-0.343 0.697,-0.679 1.053,-1.011 l -93.082,163.111 -0.758,0.76 c -11.381,11.38 -29.942,11.38 -41.325,0 l -0.758,-0.76 z m -441.852,0 c -0.357,0.332 -0.707,0.664 -1.05,1.011 l -4.081,4.082 c -16.482,16.485 -43.373,16.481 -59.851,0 l -4.082,-4.082 c -0.343,-0.343 -0.696,-0.679 -1.053,-1.011 l 93.082,163.111 0.758,0.76 c 11.383,11.38 29.944,11.38 41.326,0 l 0.758,-0.76 z"
             style="fill:#3f75ab;fill-opacity:1;fill-rule:evenodd;stroke:none"
             id="path3461" />
        </g>
        <g
           id="g3463"
           transform="translate(231.3955,316.8535)">
          <path
             d="m 0,0 c -6.753,5.785 -12.208,12.102 -23.5,12.102 -12.173,0 -17.563,-7.34 -25.11,-13.446 l 5.827,18.395 c 4.759,3.187 10.628,5.582 19.283,5.582 12.682,0 19.394,-5.141 25.376,-10.396 z M 96.117,-0.541 C 89.056,5.384 83.62,12.102 71.979,12.102 60.337,12.102 54.895,5.384 47.84,-0.541 l 1.218,14.871 c 5.429,4.447 11.933,8.303 22.921,8.303 10.98,0 17.488,-3.856 22.92,-8.303 z m 96.347,-0.723 c -7.496,6.09 -12.893,13.366 -25.007,13.366 -11.331,0 -16.782,-6.359 -23.568,-12.161 l -1.875,12.239 c 5.999,5.273 12.713,10.453 25.443,10.453 8.591,0 14.443,-2.362 19.183,-5.517 z m 94.299,4.348 c -1.787,-0.525 -3.796,-0.078 -5.208,1.328 -5.124,5.124 -11.872,7.69 -18.619,7.69 -10.965,0 -16.426,-5.953 -22.915,-11.596 l -4.139,10.248 c 6.446,5.728 13.177,11.879 27.054,11.879 4.872,0 9.747,-0.956 14.31,-2.87 z m -429.634,0.02 9.481,16.617 c 4.593,1.939 9.5,2.912 14.412,2.912 13.837,0 20.565,-6.119 26.995,-11.827 l -4.14,-10.252 c -6.465,5.627 -11.927,11.548 -22.855,11.548 -6.751,0 -13.495,-2.566 -18.623,-7.69 -1.428,-1.426 -3.469,-1.863 -5.27,-1.308"
             style="fill:#285b8f;fill-opacity:1;fill-rule:evenodd;stroke:none"
             id="path3465" />
        </g>
        <g
           id="g3467"
           transform="translate(413.8311,196.8027)">
          <path
             d="m 0,0 c 10.809,4.723 23.215,4.723 34.024,0 h 3.11 l -47.889,159.689 c -7.252,3.048 -15.502,3.051 -22.752,0.003 L -3.11,0 Z m -93.444,0 c -10.813,4.723 -23.219,4.723 -34.026,0 h -3.109 l 8.746,159.689 c 7.249,3.048 15.5,3.051 22.752,0.003 L -90.335,0 Z m -127.547,0 c -10.81,4.723 -23.216,4.723 -34.025,0 h -3.11 l 47.889,159.689 c 7.253,3.048 15.503,3.051 22.752,0.003 L -217.882,0 Z m -128.473,3.481 c -10.812,4.727 -23.219,4.727 -34.028,0 h -3.107 l 88.188,156.208 c 7.252,3.048 15.499,3.051 22.755,0.003 L -346.358,3.481 Z m 477.937,0 c 10.812,4.727 23.218,4.727 34.031,0 h 3.102 L 77.42,159.689 c -7.253,3.048 -15.5,3.051 -22.752,0.003 L 125.366,3.481 Z"
             style="fill:#4e85bd;fill-opacity:1;fill-rule:evenodd;stroke:none"
             id="path3469" />
        </g>
        <g
           id="g3471"
           transform="translate(124.3564,325.9687)">
          <path
             d="m 0,0 c -3.271,1.808 -7.061,2.986 -11.939,2.986 -5.37,0 -10.742,-1.626 -15.296,-4.872 l 8.325,14.745 c 2.3,0.438 4.639,0.659 6.971,0.659 6.951,0 12.108,-1.546 16.335,-3.807 z m 96.113,-0.363 c -3.42,2.009 -7.379,3.349 -12.574,3.349 -5.824,0 -10.094,-1.68 -13.786,-4.1 l 4.023,13.427 c 2.831,0.76 6.038,1.205 9.763,1.205 6.054,0 10.748,-1.173 14.651,-2.968 z m 95.991,-0.304 c -3.538,2.177 -7.631,3.653 -13.086,3.653 -5.458,0 -9.549,-1.476 -13.086,-3.653 l 0.664,12.137 c 3.442,1.263 7.475,2.048 12.422,2.048 4.943,0 8.979,-0.785 12.419,-2.048 z m 96.084,-0.389 c -3.676,2.39 -7.919,4.042 -13.692,4.042 -5.231,0 -9.209,-1.357 -12.642,-3.387 l -2.08,10.919 c 3.916,1.814 8.632,3 14.722,3 3.687,0 6.87,-0.438 9.679,-1.183 z m 96.953,-0.739 -8.283,14.667 c -2.271,0.432 -4.577,0.646 -6.883,0.646 -6.988,0 -12.16,-1.559 -16.397,-3.839 l 4.393,-9.711 c 3.291,1.827 7.094,3.018 12.004,3.018 5.319,0 10.64,-1.593 15.166,-4.781"
             style="fill:#376ea6;fill-opacity:1;fill-rule:evenodd;stroke:none"
             id="path3473" />
        </g>
        <g
           id="g3475"
           transform="translate(515.6025,177.9053)">
          <path
             d="m 0,0 c -13.258,-10.424 -26.011,-8.905 -40.555,-1.232 l -55.911,167.403 c 9.362,-6.492 21.719,-6.884 31.447,-1.186 z m -128.625,1.897 c -13.258,-10.422 -24.922,-11.051 -39.466,-3.38 l -16.646,167.654 c 9.361,-6.492 21.719,-6.884 31.442,-1.186 z m -168.318,-2.15 c 13.258,-10.424 26.01,-8.901 40.554,-1.23 l 16.647,167.654 c -9.361,-6.492 -21.716,-6.884 -31.446,-1.186 z M -424.318,0 c 13.261,-10.424 26.01,-8.905 40.554,-1.232 l 55.913,167.403 c -9.359,-6.492 -21.719,-6.884 -31.443,-1.186 z"
             style="fill:#2a5b8c;fill-opacity:1;fill-rule:evenodd;stroke:none"
             id="path3477" />
        </g>
        <g
           id="g3479"
           transform="translate(272.6377,311.6191)">
          <path
             d="m 0,0 c -4.351,-2.462 -9.683,-4.176 -17.003,-4.176 -6.86,0 -11.969,1.507 -16.164,3.716 l 1.763,11.324 c 3.842,-2.636 8.253,-4.509 14.401,-4.509 8.367,0 13.53,3.472 18.393,7.625 z m 94.483,-0.538 c -4.165,-2.17 -9.234,-3.638 -16.007,-3.638 -7.334,0 -12.672,1.721 -17.026,4.186 l -1.39,13.986 c 4.87,-4.159 10.033,-7.641 18.416,-7.641 6.089,0 10.482,1.84 14.291,4.441 z m 95.907,0.226 c -4.244,-2.293 -9.426,-3.864 -16.436,-3.864 -7.055,0 -12.264,1.594 -16.526,3.91 l -5.957,17.842 c 6.303,-5.526 11.761,-11.221 22.483,-11.221 5.16,0 9.103,1.322 12.504,3.311 z m -286.176,0.143 5.985,17.92 c -6.388,-5.581 -11.848,-11.396 -22.68,-11.396 -5.106,0 -9.012,1.295 -12.394,3.243 l -3.926,-9.974 c 4.225,-2.258 9.374,-3.8 16.32,-3.8 7.152,0 12.403,1.636 16.695,4.007"
             style="fill:#1c4875;fill-opacity:1;fill-rule:evenodd;stroke:none"
             id="path3481" />
        </g>
        <g
           id="g3483"
           transform="translate(507.126,175.0996)">
          <path
             d="m 0,0 c -7.586,-3.938 -14.92,-4.548 -22.934,-2.131 l -57.628,167.408 c 6.051,-2.002 12.636,-1.976 18.674,0.072 z m -127.767,-0.295 c -7.586,-3.941 -14.92,-4.548 -22.933,-2.128 l -18.147,167.7 c 6.051,-2.002 12.637,-1.976 18.674,0.072 z m -152.835,0 c 7.586,-3.941 14.919,-4.548 22.93,-2.128 l 18.147,167.7 c -6.051,-2.002 -12.633,-1.976 -18.671,0.072 z M -407.523,0 c 7.586,-3.938 14.919,-4.548 22.93,-2.131 l 57.628,167.408 c -6.047,-2.002 -12.633,-1.976 -18.67,0.072 z"
             style="fill:#275482;fill-opacity:1;fill-rule:evenodd;stroke:none"
             id="path3485" />
        </g>
        <g
           id="g3487"
           transform="translate(264.1348,308.3379)">
          <path
             d="m 0,0 c -2.514,-0.567 -5.319,-0.895 -8.5,-0.895 -4.263,0 -7.846,0.584 -10.961,1.555 l 1.46,10.787 c 2.705,-1.124 5.786,-1.81 9.501,-1.81 3.829,0 6.983,0.728 9.75,1.914 z m 97.104,0.411 c -2.915,-0.816 -6.239,-1.306 -10.126,-1.306 -3.563,0 -6.653,0.409 -9.386,1.109 l -1.274,11.748 c 2.981,-1.425 6.405,-2.325 10.66,-2.325 3.343,0 6.174,0.556 8.681,1.49 z m 95.826,0.098 c -2.996,-0.882 -6.434,-1.404 -10.473,-1.404 -3.414,0 -6.395,0.376 -9.044,1.021 l -4.664,13.56 c 3.677,-2.391 7.926,-4.049 13.708,-4.049 2.507,0 4.723,0.317 6.731,0.861 z m -287.891,-0.386 4.665,13.55 c -3.674,-2.385 -7.917,-4.036 -13.683,-4.036 -2.513,0 -4.735,0.317 -6.75,0.868 l -3.742,-9.99 c 3.003,-0.884 6.444,-1.41 10.492,-1.41 3.405,0 6.375,0.374 9.018,1.018"
             style="fill:#15406b;fill-opacity:1;fill-rule:evenodd;stroke:none"
             id="path3489" />
        </g>
        <g
           id="g3491"
           transform="translate(594.0078,192.9736)">
          <path
             d="m 0,0 c 2.753,-2.753 2.753,-7.224 0,-9.974 -2.754,-2.753 -7.217,-2.753 -9.971,0 -6.867,6.865 -15.904,10.298 -24.941,10.298 -27.902,0 -29.186,-28.809 -63.929,-28.809 -34.747,0 -36.026,28.809 -63.932,28.809 -27.906,0 -29.188,-28.809 -63.932,-28.809 -34.743,0 -36.026,28.809 -63.929,28.809 -27.905,0 -29.185,-28.809 -63.931,-28.809 -34.747,0 -36.024,28.809 -63.933,28.809 -27.902,0 -29.185,-28.809 -63.929,-28.809 -34.747,0 -36.026,28.809 -63.931,28.809 -9.038,0 -18.076,-3.433 -24.939,-10.301 -2.754,-2.753 -7.217,-2.753 -9.971,0 -2.753,2.753 -2.753,7.22 0,9.974 9.618,9.617 22.267,14.431 34.91,14.431 34.747,0 36.022,-28.81 63.931,-28.81 27.903,0 29.186,28.81 63.929,28.81 34.747,0 36.026,-28.81 63.933,-28.81 27.905,0 29.188,28.81 63.931,28.81 34.743,0 36.024,-28.81 63.929,-28.81 27.906,0 29.185,28.81 63.932,28.81 34.747,0 36.023,-28.81 63.932,-28.81 27.902,0 29.185,28.81 63.929,28.81 C -22.267,14.428 -9.617,9.614 0,0"
             style="fill:#659acf;fill-opacity:1;fill-rule:evenodd;stroke:none"
             id="path3493" />
        </g>
        <g
           id="g3495"
           transform="translate(12.7402,192.9707)">
          <path
             d="m 0,0 c 9.705,9.708 21.253,15.969 34.971,15.969 19.215,0 28.514,-7.508 37.36,-15.37 7.295,-6.482 14.207,-12.626 26.51,-12.626 12.296,0 19.215,6.144 26.507,12.626 8.845,7.858 18.214,16.18 37.422,16.18 19.214,0 28.576,-8.318 37.425,-16.18 7.288,-6.482 14.207,-12.626 26.507,-12.626 12.299,0 19.215,6.144 26.506,12.626 8.85,7.858 18.211,16.18 37.426,16.18 19.208,0 28.573,-8.318 37.423,-16.18 7.291,-6.482 14.207,-12.626 26.505,-12.626 12.299,0 19.215,6.144 26.51,12.626 8.846,7.858 18.211,16.18 37.422,16.18 19.212,0 28.573,-8.318 37.423,-16.18 7.292,-6.482 14.207,-12.626 26.51,-12.626 12.296,0 19.215,6.144 26.506,12.626 8.846,7.862 18.522,15.807 37.733,15.807 18.029,0 25.398,-8.736 34.602,-16.403 -12.394,9.024 -25.529,13.099 -34.787,13.099 -17.436,0 -26.23,-8.729 -34.428,-16.011 -7.982,-7.094 -15.552,-13.819 -29.626,-13.819 -14.078,0 -21.652,6.725 -29.632,13.819 -8.195,7.282 -16.863,14.988 -34.301,14.988 -17.436,0 -26.104,-7.71 -34.3,-14.988 -7.984,-7.094 -15.553,-13.819 -29.632,-13.819 -14.077,0 -21.644,6.725 -29.628,13.819 -8.196,7.282 -16.867,14.988 -34.3,14.988 -17.434,0 -26.109,-7.71 -34.303,-14.988 -7.981,-7.094 -15.555,-13.819 -29.629,-13.819 -14.074,0 -21.647,6.725 -29.629,13.819 -8.195,7.282 -16.867,14.988 -34.303,14.988 -17.434,0 -26.105,-7.71 -34.3,-14.988 -7.985,-7.094 -15.555,-13.819 -29.629,-13.819 -14.077,0 -21.648,6.725 -29.629,13.819 C 61.014,4.373 52.281,12.886 34.848,12.886 18.914,12.886 11.457,7.382 0,0"
             style="fill:#9cc5ed;fill-opacity:1;fill-rule:evenodd;stroke:none"
             id="path3497" />
        </g>
        <g
           id="g3499"
           transform="translate(450.6602,454.1143)">
          <path
             d="m 0,0 69.74,-117.44 c -12.309,12.305 -36.11,8.581 -48.413,-3.725 l -3.052,-3.048 c -12.308,-12.309 -32.384,-12.309 -44.687,0 l -3.052,3.048 c -12.308,12.306 -32.382,12.306 -44.69,0 l -3.049,-3.048 c -12.309,-12.309 -32.382,-12.309 -44.688,0 l -3.051,3.048 c -12.309,12.306 -32.382,12.306 -44.691,0 l -3.049,-3.048 c -12.305,-12.309 -32.379,-12.309 -44.687,0 l -3.052,3.048 c -12.308,12.306 -32.382,12.306 -44.687,0 l -3.052,-3.048 c -12.306,-12.309 -32.382,-12.309 -44.688,0 l -3.051,3.048 c -12.302,12.306 -36.104,16.03 -48.413,3.725 L -294.572,0 c 8.5,8.5 22.36,8.5 30.859,0 l 2.103,-2.102 c 8.5,-8.5 22.363,-8.5 30.863,0 L -228.642,0 c 8.496,8.5 22.357,8.5 30.857,0 l 2.105,-2.102 c 8.5,-8.5 22.361,-8.5 30.86,0 L -162.718,0 c 8.5,8.5 22.364,8.5 30.864,0 l 2.102,-2.102 c 8.496,-8.5 22.359,-8.5 30.859,0 L -96.787,0 c 8.5,8.5 22.357,8.5 30.856,0 l 2.106,-2.102 c 8.5,-8.5 22.363,-8.5 30.86,0 L -30.859,0 C -22.36,8.497 -8.499,8.5 0,0"
             style="fill:#336699;fill-opacity:1;fill-rule:evenodd;stroke:none"
             id="path3501" />
        </g>
        <g
           id="g3503"
           transform="translate(234.3076,329.1465)">
          <path
             d="m 0,0 19.05,124.401 -0.567,0.567 c -8.5,8.5 -22.363,8.5 -30.86,0 L -12.943,124.401 -52.354,0 c 0.265,0.249 0.527,0.499 0.787,0.755 l 3.045,3.048 c 12.308,12.305 32.384,12.305 44.694,0 L -0.783,0.755 C -0.524,0.499 -0.262,0.249 0,0 M 95.245,0 C 94.98,0.249 94.715,0.499 94.462,0.755 L 91.41,3.803 c -12.308,12.305 -32.382,12.305 -44.69,0 L 43.671,0.755 C 43.415,0.499 43.153,0.249 42.888,0 l 10.183,124.401 0.564,0.567 c 8.5,8.5 22.363,8.5 30.863,0 l 0.563,-0.567 z m 42.829,0 -19.046,124.401 0.564,0.567 c 8.499,8.5 22.363,8.5 30.859,0 l 0.568,-0.567 L 190.43,0 c -0.266,0.249 -0.529,0.499 -0.787,0.755 l -3.045,3.048 c -12.31,12.305 -32.386,12.305 -44.692,0 L 138.858,0.755 C 138.599,0.499 138.34,0.249 138.074,0 m 95.939,2.601 c 0.262,0.246 0.524,0.499 0.784,0.754 l 3.045,3.048 c 12.308,12.31 32.385,12.306 44.694,0 l 3.045,-3.048 c 0.256,-0.255 0.522,-0.508 0.783,-0.754 l -69.503,121.8 -0.567,0.567 c -8.499,8.5 -22.363,8.5 -30.859,0 l -0.567,-0.567 z m -329.951,0 c -0.259,0.246 -0.525,0.499 -0.781,0.754 l -3.048,3.048 c -12.305,12.31 -32.385,12.306 -44.694,0 l -3.045,-3.048 c -0.256,-0.255 -0.521,-0.508 -0.784,-0.754 l 69.507,121.8 0.563,0.567 c 8.5,8.5 22.361,8.5 30.86,0 l 0.567,-0.567 z"
             style="fill:#3f75ab;fill-opacity:1;fill-rule:evenodd;stroke:none"
             id="path3505" />
        </g>
        <g
           id="g3507"
           transform="translate(385.8535,339.5342)">
          <path
             d="m 0,0 c 8.075,3.527 17.34,3.527 25.412,0 h 2.319 l -35.76,119.245 c -5.416,2.276 -11.574,2.276 -16.99,0 L -2.322,0 Z m -69.775,0 c -8.073,3.527 -17.336,3.527 -25.409,0 h -2.322 l 6.53,119.245 c 5.413,2.276 11.574,2.276 16.99,0 L -67.456,0 Z m -95.243,0 c -8.072,3.527 -17.338,3.527 -25.411,0 h -2.319 l 35.761,119.245 c 5.416,2.276 11.573,2.276 16.993,0 L -162.695,0 Z m -95.935,2.598 c -8.071,3.531 -17.336,3.531 -25.411,0 h -2.32 l 65.854,116.647 c 5.415,2.276 11.573,2.276 16.989,0 L -258.634,2.598 Z m 356.889,0 c 8.075,3.531 17.336,3.531 25.411,0 h 2.319 l -65.85,116.647 c -5.416,2.276 -11.576,2.276 -16.992,0 L 93.616,2.598 Z"
             style="fill:#4e85bd;fill-opacity:1;fill-rule:evenodd;stroke:none"
             id="path3509" />
        </g>
        <g
           id="g3511"
           transform="translate(461.8516,325.4209)">
          <path
             d="m 0,0 c -9.902,-7.783 -19.422,-6.649 -30.283,-0.916 l -41.75,125.004 c 6.99,-4.847 16.218,-5.141 23.481,-0.888 z m -96.045,1.419 c -9.902,-7.783 -18.612,-8.253 -29.471,-2.523 l -12.431,125.192 c 6.986,-4.847 16.214,-5.141 23.477,-0.888 z m -125.694,-1.604 c 9.902,-7.787 19.423,-6.649 30.287,-0.919 l 12.431,125.192 c -6.99,-4.847 -16.218,-5.141 -23.48,-0.888 z M -316.849,0 c 9.9,-7.783 19.423,-6.649 30.284,-0.916 l 41.749,125.004 c -6.99,-4.847 -16.217,-5.141 -23.483,-0.888 z"
             style="fill:#2a5b8c;fill-opacity:1;fill-rule:evenodd;stroke:none"
             id="path3513" />
        </g>
        <g
           id="g3515"
           transform="translate(455.5195,323.3291)">
          <path
             d="m 0,0 c -5.662,-2.944 -11.14,-3.398 -17.123,-1.591 l -43.036,125.007 c 4.522,-1.493 9.439,-1.477 13.948,0.052 z m -95.408,-0.221 c -5.662,-2.944 -11.139,-3.397 -17.122,-1.59 l -13.55,125.227 c 4.52,-1.493 9.437,-1.477 13.945,0.052 z m -114.123,0 c 5.666,-2.944 11.139,-3.397 17.123,-1.59 l 13.549,125.227 c -4.519,-1.493 -9.436,-1.477 -13.945,0.052 z M -304.307,0 c 5.665,-2.944 11.14,-3.398 17.12,-1.591 l 43.036,125.007 c -4.516,-1.493 -9.433,-1.477 -13.942,0.052 z"
             style="fill:#275482;fill-opacity:1;fill-rule:evenodd;stroke:none"
             id="path3517" />
        </g>
        <g
           id="g3519"
           transform="translate(520.4004,336.6738)">
          <path
             d="m 0,0 c 2.054,-2.057 2.054,-5.393 0,-7.446 -2.057,-2.054 -5.391,-2.054 -7.447,0 -5.127,5.124 -11.875,7.689 -18.622,7.689 -20.841,0 -21.793,-21.511 -47.74,-21.511 -25.946,0 -26.904,21.511 -47.739,21.511 -20.838,0 -21.793,-21.511 -47.739,-21.511 -25.946,0 -26.902,21.511 -47.739,21.511 -20.838,0 -21.793,-21.511 -47.74,-21.511 -25.946,0 -26.901,21.511 -47.739,21.511 -20.838,0 -21.793,-21.511 -47.739,-21.511 -25.946,0 -26.902,21.511 -47.739,21.511 -6.751,0 -13.494,-2.565 -18.622,-7.689 -2.057,-2.058 -5.39,-2.058 -7.448,0 -2.054,2.053 -2.054,5.389 0,7.446 7.182,7.182 16.63,10.771 26.07,10.771 25.946,0 26.901,-21.508 47.739,-21.508 20.838,0 21.793,21.508 47.739,21.508 25.946,0 26.898,-21.508 47.739,-21.508 20.835,0 21.793,21.508 47.74,21.508 25.946,0 26.898,-21.508 47.739,-21.508 20.835,0 21.793,21.508 47.739,21.508 25.946,0 26.899,-21.508 47.739,-21.508 20.835,0 21.793,21.51 47.74,21.51 C -16.63,10.773 -7.185,7.182 0,0"
             style="fill:#659acf;fill-opacity:1;fill-rule:evenodd;stroke:none"
             id="path3521" />
        </g>
        <g
           id="g3523"
           transform="translate(86.3477,336.6738)">
          <path
             d="m 0,0 c 7.25,7.246 15.872,11.924 26.118,11.924 14.346,0 21.291,-5.608 27.896,-11.48 5.445,-4.84 10.611,-9.426 19.795,-9.426 9.186,0 14.349,4.586 19.795,9.426 6.607,5.87 13.597,12.082 27.944,12.082 14.346,0 21.337,-6.21 27.944,-12.082 5.445,-4.84 10.608,-9.426 19.795,-9.426 9.184,0 14.35,4.586 19.791,9.426 6.608,5.87 13.602,12.082 27.948,12.082 14.343,0 21.337,-6.21 27.942,-12.082 5.448,-4.84 10.611,-9.426 19.798,-9.426 9.183,0 14.346,4.586 19.792,9.426 6.607,5.87 13.6,12.082 27.947,12.082 14.343,0 21.337,-6.21 27.944,-12.082 5.445,-4.84 10.609,-9.426 19.795,-9.426 9.184,0 14.347,4.586 19.792,9.426 6.607,5.872 13.831,11.804 28.178,11.804 13.465,0 18.965,-6.52 25.839,-12.248 -9.255,6.741 -19.067,9.786 -25.979,9.786 -13.014,0 -19.584,-6.52 -25.706,-11.959 -5.96,-5.3 -11.616,-10.32 -22.124,-10.32 -10.515,0 -16.17,5.02 -22.124,10.32 -6.122,5.439 -12.597,11.192 -25.615,11.192 -13.022,0 -19.497,-5.756 -25.615,-11.192 -5.96,-5.3 -11.617,-10.32 -22.124,-10.32 -10.515,0 -16.167,5.02 -22.124,10.32 -6.123,5.439 -12.597,11.192 -25.616,11.192 -13.021,0 -19.493,-5.756 -25.615,-11.192 -5.96,-5.3 -11.616,-10.32 -22.124,-10.32 -10.515,0 -16.164,5.02 -22.124,10.32 -6.122,5.439 -12.597,11.192 -25.615,11.192 -13.019,0 -19.493,-5.756 -25.615,-11.192 -5.96,-5.3 -11.617,-10.32 -22.124,-10.32 -10.512,0 -16.167,5.02 -22.125,10.32 C 45.563,3.266 39.042,9.621 26.024,9.621 14.123,9.621 8.559,5.51 0,0"
             style="fill:#9cc5ed;fill-opacity:1;fill-rule:evenodd;stroke:none"
             id="path3525" />
        </g>
      </g>
    </g>
  </g>
</svg>
